<?xml version="1.0" encoding="utf-8"?>
<!-- Generator: Adobe Illustrator 23.0.1, SVG Export Plug-In . SVG Version: 6.00 Build 0)  -->
<svg version="1.1" id="Layer_1" xmlns="http://www.w3.org/2000/svg" xmlns:xlink="http://www.w3.org/1999/xlink" x="0px" y="0px"
	 viewBox="0 0 181 209" style="enable-background:new 0 0 181 209;" xml:space="preserve">
<style type="text/css">
	.st0{fill:#BA7E67;stroke:#99A5AB;stroke-width:10.6698;stroke-linecap:round;stroke-linejoin:round;stroke-miterlimit:10;}
	.st1{fill:#FFFFFF;}
	.st2{font-family:'Courier';}
	.st3{font-size:28px;}
	.st4{fill:#6C4C28;stroke:#5A4124;stroke-width:14.116;}
	.st5{fill:#996C38;}
	.st6{fill:#5A4124;}
	.st7{fill-rule:evenodd;clip-rule:evenodd;fill:#5A4124;}
	.st8{fill-rule:evenodd;clip-rule:evenodd;fill:#FFFFFF;}
	.st9{fill-rule:evenodd;clip-rule:evenodd;fill:#E79C2D;}
	.st10{fill-rule:evenodd;clip-rule:evenodd;}
	.st11{fill:#825E34;}
	.st12{fill:#EDA91A;}
	.st13{fill-rule:evenodd;clip-rule:evenodd;fill:#EDA91A;stroke:#5A4124;stroke-width:0.565;}
</style>
<g id="surface2602">
	<path class="st0" d="M6.7,152.9l83.8,48.4l83.8-48.4V56.1L90.5,7.7L6.7,56.1V152.9z"/>
	<text transform="matrix(1 0 0 1 31.6902 68.2241)" class="st1 st2 st3">Rvision</text>
</g>
<g transform="translate(-.10384 -14.188)">
	<path class="st4" d="M57.3,131.2c-12.3,20.9-3.2,39.9,8.6,53.6c-6.1-11-10.5-26.4-9.2-47.5c0.1-2.1,0.4-4,0.8-5.9
		C57.4,131.3,57.4,131.2,57.3,131.2L57.3,131.2z M121.9,132.3c0.1,0.3,0.2,0.6,0.2,0.9c2.9,14.8,1.2,36.4-8.4,53.7
		C128.8,167.5,132,142.9,121.9,132.3L121.9,132.3z"/>
	<g transform="matrix(.99338 0 0 .99338 .00068782 13.66)">
		<path class="st5" d="M54.8,77.6c0,0,35.4,32.2,69.4,0.1c-3.7,15.4-5.7,27.9-1.3,42.7c4.5,22.8-1.8,62.1-31.7,76.4
			c0,0-37.8-15.7-34.2-72.4C58.1,109.5,65.9,102.5,54.8,77.6L54.8,77.6z"/>
		<path class="st6" d="M124.9,76.5l-1,0.9C107,93.4,89.9,93.3,76.9,89.3c-13-4-21.8-12-21.8-12l-0.6,0.5c5.5,12.4,6.3,20.3,5.6,26.9
			s-2.9,12.2-3.4,19.7c-1.8,28.4,6.8,46.6,15.8,57.7c9.1,11.1,18.6,15.1,18.6,15.1l0.2,0.1l0.2-0.1c15.1-7.2,24.1-20.7,28.9-35.2
			c4.8-14.5,5.2-30.1,3-41.6l0,0l0,0c-4.4-14.7-2.4-27.1,1.3-42.5L124.9,76.5L124.9,76.5z M123.5,78.9c-3.5,14.8-5.3,27.1-1,41.6
			c2.2,11.3,1.8,26.8-3,41.2c-4.7,14.3-13.6,27.6-28.3,34.7c-0.8-0.4-9.6-4.3-18.1-14.8c-8.9-10.9-17.5-28.9-15.6-57.2
			c0.5-7.4,2.7-12.9,3.4-19.7c0.7-6.5-0.1-14.2-5-25.8c2.9,2.3,10.5,7.9,20.8,11.1C89.6,94,106.7,94.1,123.5,78.9L123.5,78.9z"/>
	</g>
	<path class="st1" d="M117.9,135.3c-3.6,4.5-9.2,7.4-15.7,7.4c-4.7,0-9-1.5-12.3-4.1c-3.4,2.6-7.7,4.1-12.3,4.1
		c-6,0-11.3-2.5-14.8-6.4c1.2,38.6,27.9,49.7,27.9,49.7C108.6,178.5,117.5,151.7,117.9,135.3L117.9,135.3z"/>
	<g transform="matrix(13.392 0 0 13.392 -3012.2 -1612.9)">
		<path class="st7" d="M230.7,128.4c-0.8,0-1.5,0.6-1.5,1.4c0,0.8,0.7,1.4,1.5,1.4c0.3,0,0.7-0.1,0.9-0.3c0.3,0.2,0.6,0.3,0.9,0.3
			c0.8,0,1.5-0.6,1.5-1.4c0-0.8-0.7-1.4-1.5-1.4c-0.3,0-0.7,0.1-0.9,0.3C231.4,128.5,231.1,128.4,230.7,128.4z"/>
		<path class="st8" d="M230.8,128.4c-0.7,0-1.3,0.6-1.3,1.3c0,0.7,0.6,1.3,1.3,1.3c0.3,0,0.6-0.1,0.8-0.3c0.2,0.2,0.5,0.3,0.8,0.3
			c0.7,0,1.3-0.6,1.3-1.3c0-0.7-0.6-1.3-1.3-1.3c-0.3,0-0.6,0.1-0.8,0.3C231.4,128.5,231.1,128.4,230.8,128.4z"/>
		<g id="a">
			<path class="st9" d="M231.5,129.8c0,0.4-0.3,0.8-0.8,0.8c-0.4,0-0.8-0.3-0.8-0.8c0-0.4,0.3-0.8,0.8-0.8
				C231.1,129,231.5,129.3,231.5,129.8z"/>
			<path class="st10" d="M231.2,129.8c0,0.3-0.2,0.5-0.5,0.5c-0.3,0-0.5-0.2-0.5-0.5c0-0.3,0.2-0.5,0.5-0.5
				C231,129.3,231.2,129.5,231.2,129.8z"/>
			<path class="st8" d="M231.1,129.6c0,0.1-0.1,0.2-0.2,0.2c-0.1,0-0.2-0.1-0.2-0.2s0.1-0.2,0.2-0.2S231.1,129.5,231.1,129.6z"/>
		</g>
		<g transform="translate(32.17)">
			<g>
				<path class="st9" d="M233.4,129.8c0,0.4-0.3,0.8-0.8,0.8c-0.4,0-0.8-0.3-0.8-0.8c0-0.4,0.3-0.8,0.8-0.8
					C233,129,233.4,129.3,233.4,129.8z"/>
				<path class="st10" d="M233.1,129.8c0,0.3-0.2,0.5-0.5,0.5c-0.3,0-0.5-0.2-0.5-0.5c0-0.3,0.2-0.5,0.5-0.5
					C232.9,129.3,233.1,129.5,233.1,129.8z"/>
				<path class="st8" d="M233,129.6c0,0.1-0.1,0.2-0.2,0.2c-0.1,0-0.2-0.1-0.2-0.2s0.1-0.2,0.2-0.2S233,129.5,233,129.6z"/>
			</g>
		</g>
	</g>
	<g transform="matrix(.99338 0 0 .99338 .00068782 13.66)">
		<path class="st11" d="M54.8,77.6c0,0,35.4,32.2,69.4,0.1c-2.1,12.5-30,21.2-33.5,30.4C86.9,98.4,58.1,91,54.8,77.6L54.8,77.6z"/>
		<path class="st6" d="M54.1,76.4l0.3,1.2c1.7,6.9,9.8,12.2,17.9,16.9c4.1,2.4,8.1,4.6,11.4,6.9c3.3,2.3,5.7,4.5,6.6,6.8l0.4,1
			l0.4-1c0.8-2.2,3.2-4.4,6.3-6.7c3.1-2.3,7-4.6,10.8-7.1c3.8-2.4,7.7-5,10.7-7.7c3-2.7,5.2-5.7,5.8-9l0.2-1.2l-0.9,0.8
			C107,93.4,89.9,93.3,76.9,89.3c-13-4-21.8-12-21.8-12L54.1,76.4L54.1,76.4z M55.6,78.8c2.6,2.1,10.4,8,21.1,11.3
			c12.9,4,30.1,4.1,46.9-11.2c-0.8,2.5-2.7,5-5.2,7.3c-2.9,2.7-6.7,5.2-10.5,7.7c-3.8,2.4-7.7,4.8-10.9,7.1
			c-2.8,2.1-5.1,4.1-6.2,6.3c-1.2-2.3-3.6-4.3-6.5-6.4c-3.3-2.3-7.4-4.6-11.4-6.9C65.2,89.5,57.8,84.6,55.6,78.8L55.6,78.8z"/>
	</g>
	<path class="st12" d="M86.1,139.1c0,2,2.5,7.7,3.9,8.6c1.7-1,3.8-6.6,3.8-8.6c0-2-2.3-4-3.8-4C88.1,135.1,86.2,137.1,86.1,139.1
		L86.1,139.1z"/>
	<g transform="matrix(13.392 0 0 13.392 -3108 -1697.2)">
		<path class="st13" d="M237.5,141.2c0.1,0,0.2,0.1,0.2,0.2c-0.1,0.2,0,0.4,0,0.5c0,0.1-0.1,0.2-0.2,0.2c-0.1,0-0.2-0.1-0.2-0.2
			c0-0.3,0-0.4,0-0.5C237.4,141.3,237.4,141.2,237.5,141.2z"/>
		<path class="st13" d="M238.2,141.2c0.1,0,0.1,0.1,0.2,0.2c0.1,0.2,0,0.4,0,0.5c0,0.1-0.1,0.2-0.2,0.2c-0.1,0-0.2-0.1-0.2-0.2
			c0-0.2,0.1-0.3,0-0.5C237.9,141.3,238.1,141.2,238.2,141.2z"/>
		<path class="st13" d="M237.8,141.2c0.1,0,0.2,0.1,0.2,0.2c0.1,0.2,0,0.4,0,0.5c0,0.1-0.1,0.2-0.2,0.2c-0.1,0-0.1-0.1-0.2-0.2
			c0-0.2-0.1-0.4,0-0.5C237.7,141.3,237.7,141.2,237.8,141.2z"/>
	</g>
	<g transform="matrix(13.392 0 0 13.392 -2653.5 -1693)">
		<path class="st13" d="M205.6,140.9c0.1,0,0.2,0.1,0.2,0.2c-0.1,0.2,0,0.4,0,0.5c0,0.1-0.1,0.2-0.2,0.2c-0.1,0-0.2-0.1-0.2-0.2
			c0-0.3,0-0.4,0-0.5C205.4,141,205.5,140.9,205.6,140.9z"/>
		<path class="st13" d="M206.2,140.9c0.1,0,0.1,0.1,0.2,0.2c0.1,0.2,0,0.4,0,0.5c0,0.1-0.1,0.2-0.2,0.2s-0.2-0.1-0.2-0.2
			c0-0.2,0.1-0.3,0-0.5C206,141,206.1,140.9,206.2,140.9z"/>
		<path class="st13" d="M205.9,140.9c0.1,0,0.2,0.1,0.2,0.2c0.1,0.2,0,0.4,0,0.5c0,0.1-0.1,0.2-0.2,0.2c-0.1,0-0.1-0.1-0.2-0.2
			c0-0.2-0.1-0.4,0-0.5C205.7,141,205.8,140.9,205.9,140.9z"/>
	</g>
</g>
</svg>
